<svg xmlns="http://www.w3.org/2000/svg" xmlns:xlink="http://www.w3.org/1999/xlink" width="100" height="100" version="1.1" viewBox="0 0 100 100"><title>Logo-Black</title><desc>Created with Sketch.</desc><defs><polygon id="path-1" points="48 17.6 32.8 48 24 48 .4 .8 15.6 .8 28.4 26.4 32.8 17.6 48 17.6"/><filter id="filter-2" width="139.9%" height="140.3%" x="-20%" y="-11.7%" filterUnits="objectBoundingBox"><feOffset dx="0" dy="4" in="SourceAlpha" result="shadowOffsetOuter1"/><feGaussianBlur in="shadowOffsetOuter1" result="shadowBlurOuter1" stdDeviation="2.5"/><feComposite in="shadowBlurOuter1" in2="SourceAlpha" operator="out" result="shadowBlurOuter1"/><feColorMatrix in="shadowBlurOuter1" type="matrix" values="0 0 0 0 0 0 0 0 0 0 0 0 0 0 0 0 0 0 0.0906646286 0"/></filter><path id="path-3" d="M40.810519,12 L50.8,12 L50.8,12 L56.4,0.8 L47.610519,0.8 L36.4,0.8 L36.4,3.2 L40,3.2 L39.2,4.8 L32.4,4.8 L32.4,7.2 L38,7.2 L36.8,9.6 L28.4,9.6 L28.4,12 L40.810519,12 Z"/><filter id="filter-4" width="167.9%" height="269.6%" x="-33.9%" y="-49.1%" filterUnits="objectBoundingBox"><feOffset dx="0" dy="4" in="SourceAlpha" result="shadowOffsetOuter1"/><feGaussianBlur in="shadowOffsetOuter1" result="shadowBlurOuter1" stdDeviation="2.5"/><feColorMatrix in="shadowBlurOuter1" type="matrix" values="0 0 0 0 0 0 0 0 0 0 0 0 0 0 0 0 0 0 0.0906646286 0"/></filter></defs><g id="Page-1" fill="none" fill-rule="evenodd" stroke="none" stroke-width="1"><g id="Verdaccio-BlackWhite"><rect id="BG" width="100" height="100" x="0" y="0" fill="#000" rx="37"/><g id="Group" transform="translate(22.000000, 29.000000)"><g id="Combined-Shape"><use fill="#000" fill-opacity="1" filter="url(#filter-2)" xlink:href="#path-1"/><use fill="#FFF" fill-opacity=".6" fill-rule="evenodd" xlink:href="#path-1"/></g><g id="Combined-Shape"><use fill="#000" fill-opacity="1" filter="url(#filter-4)" xlink:href="#path-3"/><use fill="#FFF" fill-rule="evenodd" xlink:href="#path-3"/></g><polygon id="Combined-Shape" fill="#FFF" points="32.8 48 24 48 .4 .8 15.6 .8 35.977 41.691"/></g></g></g></svg>