<svg xmlns="http://www.w3.org/2000/svg" xmlns:xlink="http://www.w3.org/1999/xlink" width="301" height="100" version="1.1" viewBox="0 0 301 100"><title>verdaccio-banner</title><desc>Created with Sketch.</desc><g id="verdaccio-banner" fill="none" fill-rule="evenodd" stroke="none" stroke-width="1"><g id="verdaccio-logo-Full"><rect id="BG" width="301" height="100" x="0" y="0" fill="#F7F8F6" fill-rule="nonzero" rx="37"/><g id="Group-2" transform="translate(27.000000, 22.000000)"><g id="Group-2-Copy" fill="#405236" font-family="OpenSansLight-Italic, Open Sans" font-size="42.4" font-style="italic" font-weight="300" transform="translate(81.200000, 0.400000)"><g id="Verdaccio"><text><tspan x="0" y="45">Verdaccio</tspan></text></g></g><g id="Group" transform="translate(0.000000, 5.500000)"><g id="Combined-Shape"><g id="path-1-link" fill="#000" fill-rule="nonzero"><polygon id="path-1" points="48 17.6 32.8 48 24 48 .4 .8 15.6 .8 28.4 26.4 32.8 17.6"/></g><g id="path-1-link" fill="#405236"><polygon id="path-1" points="48 17.6 32.8 48 24 48 .4 .8 15.6 .8 28.4 26.4 32.8 17.6"/></g><polygon id="Shape" stroke="#405236" stroke-width="2.4" points="46.058 18.8 33.542 18.8 28.4 29.083 14.858 2 2.342 2 24.742 46.8 32.058 46.8"/></g><g id="Path" transform="translate(35.000000, 0.000000)"><g id="path-3-link" fill="#000" fill-rule="nonzero"><polygon id="path-3" points="15.8 12 .6 12 6.2 .8 21.4 .8"/></g><g id="path-3-link" fill="#CD4000"><polygon id="path-3" points="15.8 12 .6 12 6.2 .8 21.4 .8"/></g><polygon id="Shape" stroke="#CD4000" stroke-width="2.4" points="15.058 10.8 19.458 2 6.942 2 2.542 10.8"/></g><g id="Combined-Shape"><g id="path-5-link" fill="#4A5E3F"><polygon id="path-5" points="32.8 48 24 48 .4 .8 15.6 .8 35.977 41.691"/></g><polygon id="Shape" stroke="#405236" stroke-width="2.4" points="32.061 46.8 34.635 41.688 14.857 2 2.342 2 24.742 46.8"/></g><path id="Line-3" stroke="#CD4000" stroke-linecap="square" stroke-width="2.4" d="M37.6,2 L52.8210381,2"/><path id="Line-3" stroke="#CD4000" stroke-linecap="square" stroke-width="2.4" d="M33.6,6 L48.8210381,6"/><path id="Line-3" stroke="#CD4000" stroke-linecap="square" stroke-width="2.4" d="M29.6,10.8 L44.8210381,10.8"/></g></g></g></g></svg>