<svg xmlns="http://www.w3.org/2000/svg" xmlns:xlink="http://www.w3.org/1999/xlink" width="960" height="372" version="1.1" viewBox="0 0 960 372"><defs><rect id="path-1" width="960" height="369" x="0" y="0"/><filter id="filter-3" width="101.4%" height="103.5%" x="-.7%" y="-2%" filterUnits="objectBoundingBox"><feOffset dx="0" dy="-1" in="SourceAlpha" result="shadowOffsetOuter1"/><feGaussianBlur in="shadowOffsetOuter1" result="shadowBlurOuter1" stdDeviation="2"/><feColorMatrix in="shadowBlurOuter1" type="matrix" values="0 0 0 0 0 0 0 0 0 0 0 0 0 0 0 0 0 0 0.0744168931 0"/></filter></defs><g id="Page-1" fill="none" fill-rule="evenodd" stroke="none" stroke-width="1"><g id="verdaccio.github.io"><g id="Group-5"><mask id="mask-2" fill="#fff"><use xlink:href="#path-1"/></mask><g id="Rectangle"><use fill="#000" fill-opacity="1" filter="url(#filter-3)" xlink:href="#path-1"/><use fill="#F7F8F6" fill-rule="evenodd" xlink:href="#path-1"/></g><g id="Group" fill="#4A5E3F" mask="url(#mask-2)" opacity=".417"><g id="Combined-Shape" transform="translate(740.694191, 349.064745) rotate(-35.000000) translate(-740.694191, -349.064745) translate(400.694191, 64.564745)"><polygon fill-opacity=".141" points="580.601 202.389 395.199 568.616 287.861 568.616 0 0 185.402 0 341.53 308.402 395.199 202.389 580.601 202.389"/><path fill-opacity=".234" d="M426.889943,133.165312 L339.571545,133.165312 L339.571545,104.629888 L441.443009,104.629888 L455.996075,76.094464 L388.081766,76.094464 L388.081766,47.55904 L470.549142,47.55904 L480.251186,28.535424 L436.591987,28.535424 L436.591987,0 L572.548175,0 L679.143091,0 L611.228782,133.165312 L426.889943,133.165312 Z"/><polygon fill-opacity=".114" points="396.562 568.616 288.854 568.616 0 0 186.042 0 435.451 492.609"/></g></g><g id="Group-Copy" fill="#4A5E3F" mask="url(#mask-2)" opacity=".417"><g id="Combined-Shape" transform="translate(180.322830, 94.008655) rotate(-35.000000) translate(-180.322830, -94.008655) translate(-79.177170, -123.491345)"><polygon fill-opacity=".141" points="443.271 154.518 301.722 434.121 219.773 434.121 0 0 141.549 0 260.748 235.456 301.722 154.518 443.271 154.518"/><polygon fill-opacity=".114" points="302.763 434.121 220.531 434.121 0 0 142.037 0 332.453 376.092"/></g></g><g id="Group-Copy" fill="#4A5E3F" mask="url(#mask-2)" opacity=".417"><g id="Combined-Shape" transform="translate(119.506397, 347.831732) rotate(-90.000000) translate(-119.506397, -347.831732) translate(3.006397, 250.331732)"><polygon fill-opacity=".141" points="198.952 69.352 135.421 194.845 98.64 194.845 0 0 63.531 0 117.03 105.678 135.421 69.352 198.952 69.352"/><path fill-opacity=".234" d="M146.280203,45.6310794 L116.359253,45.6310794 L116.359253,35.852991 L151.267028,35.852991 L156.253853,26.0749025 L132.982003,26.0749025 L132.982003,16.2968141 L161.240679,16.2968141 L164.565229,9.77808845 L149.604753,9.77808845 L149.604753,0 L196.192168,0 L232.718505,0 L209.446655,45.6310794 L146.280203,45.6310794 Z"/><polygon fill-opacity=".114" points="135.888 194.845 98.98 194.845 0 0 63.75 0 149.214 168.8"/></g></g></g></g></g></svg>