<svg xmlns="http://www.w3.org/2000/svg" xmlns:xlink="http://www.w3.org/1999/xlink" width="100" height="100" version="1.1" viewBox="0 0 100 100"><title>verdaccio-blackwhite</title><desc>Created with Sketch.</desc><defs><polygon id="path-1" points="48 16.729 32.672 47 23.798 47 0 0 15.328 0 28.235 25.492 32.672 16.729 48 16.729"/><filter id="filter-2" width="139.6%" height="140.4%" x="-19.8%" y="-11.7%" filterUnits="objectBoundingBox"><feOffset dx="0" dy="4" in="SourceAlpha" result="shadowOffsetOuter1"/><feGaussianBlur in="shadowOffsetOuter1" result="shadowBlurOuter1" stdDeviation="2.5"/><feComposite in="shadowBlurOuter1" in2="SourceAlpha" operator="out" result="shadowBlurOuter1"/><feColorMatrix in="shadowBlurOuter1" type="matrix" values="0 0 0 0 0 0 0 0 0 0 0 0 0 0 0 0 0 0 0.0906646286 0"/></filter><path id="path-3" d="M35.2,11 L28,11 L28,8.64285714 L36.4,8.64285714 L37.6,6.28571429 L32,6.28571429 L32,3.92857143 L38.8,3.92857143 L39.6,2.35714286 L36,2.35714286 L36,0 L40.8,0 L56,0 L50.4,11 L35.2,11 Z"/><filter id="filter-4" width="167.9%" height="272.7%" x="-33.9%" y="-50%" filterUnits="objectBoundingBox"><feOffset dx="0" dy="4" in="SourceAlpha" result="shadowOffsetOuter1"/><feGaussianBlur in="shadowOffsetOuter1" result="shadowBlurOuter1" stdDeviation="2.5"/><feColorMatrix in="shadowBlurOuter1" type="matrix" values="0 0 0 0 0 0 0 0 0 0 0 0 0 0 0 0 0 0 0.0906646286 0"/></filter></defs><g id="Page-1" fill="none" fill-rule="evenodd" stroke="none" stroke-width="1"><g id="verdaccio-blackwhite"><rect id="BG" width="100" height="100" x="0" y="0" fill="#000" rx="37"/><g id="Group" transform="translate(22.000000, 30.000000)"><g id="Combined-Shape"><use fill="#000" fill-opacity="1" filter="url(#filter-2)" xlink:href="#path-1"/><use fill="#FFF" fill-opacity=".6" fill-rule="evenodd" xlink:href="#path-1"/></g><g id="Combined-Shape"><use fill="#000" fill-opacity="1" filter="url(#filter-4)" xlink:href="#path-3"/><use fill="#FFF" fill-rule="evenodd" xlink:href="#path-3"/></g><polygon id="Combined-Shape" fill="#FFF" points="32.785 47 23.88 47 0 0 15.381 0 36 40.718"/></g></g></g></svg>